<?xml version="1.0" encoding="utf-8"?>
<!-- Generator: Circuit Diagram, cdlibrary.dll 4.0.0.0 -->
<!DOCTYPE svg PUBLIC "-//W3C//DTD SVG 1.1//EN" "http://www.w3.org/Graphics/SVG/1.1/DTD/svg11.dtd">
<svg version="1.1" width="360" height="180"
	xmlns="http://www.w3.org/2000/svg">
	<text x="220" y="50" style="font-family:Arial;font-size:11px;text-anchor:start" dominant-baseline="middle" transform="rotate(0, 220, 50)">T1</text>
	<text x="280" y="70" style="font-family:Arial;font-size:11px;text-anchor:start" dominant-baseline="middle" transform="rotate(0, 280, 70)">S1</text>
	<text x="320" y="70" style="font-family:Arial;font-size:11px;text-anchor:start" dominant-baseline="middle" transform="rotate(0, 320, 70)">D1</text>
	<line x1="80" y1="140" x2="310" y2="140" style="stroke:rgba(255, 0, 0, 255);stroke-linecap:square;stroke-width:2" />
	<line x1="70" y1="90" x2="210" y2="90" style="stroke:rgba(34, 139, 34, 255);stroke-linecap:square;stroke-width:2" />
	<line x1="70" y1="90" x2="70" y2="98" style="stroke:rgba(34, 139, 34, 255);stroke-linecap:square;stroke-width:2" />
	<path d="M 62,98 L 78,98 L 70,106 L 62,98" style="fill-opacity:0;fill:rgba(34, 139, 34, 255);stroke:rgba(34, 139, 34, 255);stroke-linecap:square;stroke-width:2" />
	<text x="62" y="60" style="fill: rgba(100, 149, 237, 255);font-family:Arial;font-size:12px;text-anchor:end" dominant-baseline="middle" transform="rotate(0, 62, 60)">GPIO</text>
	<line x1="73" y1="60" x2="120" y2="60" style="stroke:rgba(100, 149, 237, 255);stroke-linecap:square;stroke-width:2" />
	<ellipse cx="70" cy="60" rx="3" ry="3" style="fill-opacity:0;fill:rgba(100, 149, 237, 255);stroke:rgba(100, 149, 237, 255);stroke-width:2" />
	<line x1="70" y1="140" x2="81" y2="140" style="stroke:rgb(0, 0, 0);stroke-linecap:square;stroke-width:2" />
	<ellipse cx="65" cy="140" rx="16" ry="16" style="fill-opacity:0;fill:rgb(0, 0, 0);stroke:rgb(0, 0, 0);stroke-width:2" />
	<line x1="49" y1="140" x2="60" y2="140" style="stroke:rgb(0, 0, 0);stroke-linecap:square;stroke-width:2" />
	<path d="M 65,140 M 75,140 L 67,140 M 71,136 L 71,144 M 61,140 L 53,140" style="fill-opacity:0;fill:rgb(0, 0, 0);stroke:rgb(0, 0, 0);stroke-linecap:square;stroke-width:2" />
	<line x1="210" y1="30" x2="310" y2="30" style="stroke:rgba(255, 165, 0, 255);stroke-linecap:square;stroke-width:2" />
	<line x1="310" y1="140" x2="310" y2="30" style="stroke:rgb(0, 0, 0);stroke-linecap:square;stroke-width:2" />
	<path d="M 310,78 M 302,78 L 318,78 M 310,78 L 318,93 L 302,93 L 310,78" style="fill-opacity:0;fill:rgb(0, 0, 0);stroke:rgb(0, 0, 0);stroke-linecap:square;stroke-width:2" />
	<line x1="210" y1="30" x2="210" y2="47" style="stroke:rgb(0, 0, 0);stroke-linecap:square;stroke-width:2" />
	<line x1="210" y1="73" x2="210" y2="90" style="stroke:rgb(0, 0, 0);stroke-linecap:square;stroke-width:2" />
	<line x1="170" y1="60" x2="196" y2="60" style="stroke:rgb(0, 0, 0);stroke-linecap:square;stroke-width:2" />
	<line x1="195.5" y1="52" x2="195.5" y2="68" style="stroke:rgb(0, 0, 0);stroke-linecap:square;stroke-width:3" />
	<line x1="210" y1="47" x2="195.5" y2="56" style="stroke:rgb(0, 0, 0);stroke-linecap:square;stroke-width:2" />
	<line x1="195.5" y1="64" x2="210" y2="73" style="stroke:rgb(0, 0, 0);stroke-linecap:square;stroke-width:2" />
	<ellipse cx="200" cy="60" rx="16" ry="16" style="fill-opacity:0;fill:rgb(0, 0, 0);stroke:rgb(0, 0, 0);stroke-width:2" />
	<path d="M 202,67 L 206,65 L 207,72 L 201,68 L 203,67" style="fill-opacity:1;fill:rgb(0, 0, 0);stroke:rgb(0, 0, 0);stroke-linecap:square;stroke-width:2" />
	<line x1="270" y1="30" x2="270" y2="61" style="stroke:rgb(0, 0, 0);stroke-linecap:square;stroke-width:2" />
	<line x1="270" y1="109" x2="270" y2="140" style="stroke:rgb(0, 0, 0);stroke-linecap:square;stroke-width:2" />
	<path d="M 270,61 A 1.5,2 90 1 1 270,73 M 270,73 A 1.5,2 90 1 1 270,85 M 270,85 A 1.5,2 90 1 1 270,97 M 270,97 A 1.5,2 90 1 1 270,109" style="fill-opacity:0;fill:rgb(0, 0, 0);stroke:rgb(0, 0, 0);stroke-linecap:square;stroke-width:2" />
	<line x1="120" y1="60" x2="125" y2="60" style="stroke:rgb(0, 0, 0);stroke-linecap:square;stroke-width:2" />
	<line x1="165" y1="60" x2="170" y2="60" style="stroke:rgb(0, 0, 0);stroke-linecap:square;stroke-width:2" />
	<path d="M 125,60 L 127,60 L 130,53 L 136,67 L 142,53 L 148,67 L 154,53 L 160,67 L 163,60 L 165,60" style="fill-opacity:0;fill:rgb(0, 0, 0);stroke:rgb(0, 0, 0);stroke-linecap:square;stroke-width:2" />
	<text x="145" y="46" style="font-family:Arial;font-size:11px;text-anchor:middle" dominant-baseline="baseline" transform="rotate(0, 145, 46)">1 kΩ</text>
	<text x="145" y="34" style="font-family:Arial;font-size:11px;text-anchor:middle" dominant-baseline="baseline" transform="rotate(0, 145, 34)">R1</text>
	<ellipse cx="270" cy="140" rx="2" ry="2" style="fill-opacity:1;fill:rgb(0, 0, 0);stroke:rgb(0, 0, 0);stroke-width:2" />
	<ellipse cx="270" cy="30" rx="2" ry="2" style="fill-opacity:1;fill:rgb(0, 0, 0);stroke:rgb(0, 0, 0);stroke-width:2" />
</svg>